{
 "cells": [
  {
   "cell_type": "code",
   "execution_count": 1,
   "metadata": {},
   "outputs": [],
   "source": [
    "import os\n",
    "import ffmpeg"
   ]
  },
  {
   "cell_type": "code",
   "execution_count": 2,
   "metadata": {},
   "outputs": [],
   "source": [
    "def merge_videos_and_create_timestamps(folder_path):\n",
    "    \"\"\"\n",
    "    Merges all MP4 videos in a folder into a single video and creates a timestamp file using ffmpeg-python.\n",
    "\n",
    "    Args:\n",
    "        folder_path (str): The path to the folder containing the MP4 videos.\n",
    "    \"\"\"\n",
    "\n",
    "    video_files = []\n",
    "    timestamps = []\n",
    "    total_duration = 0\n",
    "\n",
    "    # Get all MP4 files in the folder\n",
    "    for filename in os.listdir(folder_path):\n",
    "        if filename.endswith(\".mp4\"):\n",
    "            filepath = os.path.join(folder_path, filename)\n",
    "            video_files.append(filepath)\n",
    "\n",
    "            # Get duration of the video using ffprobe (part of ffmpeg)\n",
    "            probe = ffmpeg.probe(filepath)\n",
    "            duration = float(probe['format']['duration'])\n",
    "            timestamps.append((filename, total_duration))\n",
    "            total_duration += duration\n",
    "\n",
    "    # Create the ffmpeg command to concatenate the videos\n",
    "    inputs = [ffmpeg.input(file) for file in video_files]\n",
    "    concat_filter = f\"concat=n={len(video_files)}:v=1:a=1\"\n",
    "    merged_video = ffmpeg.concat(*inputs, v=1, a=1).output(os.path.join(folder_path, \"merged_video.mp4\"), vcodec='copy')\n",
    "\n",
    "    # Run the ffmpeg command and capture stderr output\n",
    "    try:\n",
    "        merged_video.run(capture_stdout=True, capture_stderr=True)\n",
    "    except ffmpeg.Error as e:\n",
    "        print(f\"FFmpeg error occurred: {e.stderr.decode()}\")\n",
    "        return  # Stop further execution if there's an error\n",
    "\n",
    "    # Write the timestamps to a text file\n",
    "    timestamp_file_path = os.path.join(folder_path, \"timestamps.txt\")\n",
    "    with open(timestamp_file_path, \"w\") as f:\n",
    "        for filename, timestamp in timestamps:\n",
    "            f.write(f\"{filename} - {int(timestamp // 60):02d}:{int(timestamp % 60):02d}\\n\")\n",
    "\n",
    "    print(f\"Merged video saved to: {os.path.join(folder_path, 'merged_video.mp4')}\")\n",
    "    print(f\"Timestamps saved to: {timestamp_file_path}\")"
   ]
  },
  {
   "cell_type": "code",
   "execution_count": 3,
   "metadata": {},
   "outputs": [
    {
     "name": "stdout",
     "output_type": "stream",
     "text": [
      "FFmpeg error occurred: ffmpeg version 2024-09-26-git-f43916e217-full_build-www.gyan.dev Copyright (c) 2000-2024 the FFmpeg developers\n",
      "  built with gcc 13.2.0 (Rev5, Built by MSYS2 project)\n",
      "  configuration: --enable-gpl --enable-version3 --enable-static --disable-w32threads --disable-autodetect --enable-fontconfig --enable-iconv --enable-gnutls --enable-libxml2 --enable-gmp --enable-bzlib --enable-lzma --enable-libsnappy --enable-zlib --enable-librist --enable-libsrt --enable-libssh --enable-libzmq --enable-avisynth --enable-libbluray --enable-libcaca --enable-sdl2 --enable-libaribb24 --enable-libaribcaption --enable-libdav1d --enable-libdavs2 --enable-libopenjpeg --enable-libquirc --enable-libuavs3d --enable-libxevd --enable-libzvbi --enable-libqrencode --enable-librav1e --enable-libsvtav1 --enable-libvvenc --enable-libwebp --enable-libx264 --enable-libx265 --enable-libxavs2 --enable-libxeve --enable-libxvid --enable-libaom --enable-libjxl --enable-libvpx --enable-mediafoundation --enable-libass --enable-frei0r --enable-libfreetype --enable-libfribidi --enable-libharfbuzz --enable-liblensfun --enable-libvidstab --enable-libvmaf --enable-libzimg --enable-amf --enable-cuda-llvm --enable-cuvid --enable-dxva2 --enable-d3d11va --enable-d3d12va --enable-ffnvcodec --enable-libvpl --enable-nvdec --enable-nvenc --enable-vaapi --enable-libshaderc --enable-vulkan --enable-libplacebo --enable-opencl --enable-libcdio --enable-libgme --enable-libmodplug --enable-libopenmpt --enable-libopencore-amrwb --enable-libmp3lame --enable-libshine --enable-libtheora --enable-libtwolame --enable-libvo-amrwbenc --enable-libcodec2 --enable-libilbc --enable-libgsm --enable-liblc3 --enable-libopencore-amrnb --enable-libopus --enable-libspeex --enable-libvorbis --enable-ladspa --enable-libbs2b --enable-libflite --enable-libmysofa --enable-librubberband --enable-libsoxr --enable-chromaprint\n",
      "  libavutil      59. 40.100 / 59. 40.100\n",
      "  libavcodec     61. 20.100 / 61. 20.100\n",
      "  libavformat    61.  8.100 / 61.  8.100\n",
      "  libavdevice    61.  4.100 / 61.  4.100\n",
      "  libavfilter    10.  5.100 / 10.  5.100\n",
      "  libswscale      8.  4.100 /  8.  4.100\n",
      "  libswresample   5.  4.100 /  5.  4.100\n",
      "  libpostproc    58.  4.100 / 58.  4.100\n",
      "Input #0, mov,mp4,m4a,3gp,3g2,mj2, from 'D:\\merge-test\\Journey\\Journey_20200403095123.mp4':\n",
      "  Metadata:\n",
      "    major_brand     : SNV2\n",
      "    minor_version   : 23995140\n",
      "    compatible_brands: SNV2isommp42\n",
      "    creation_time   : 2020-04-03T07:51:23.000000Z\n",
      "  Duration: 00:02:45.03, start: 0.000000, bitrate: 10625 kb/s\n",
      "  Stream #0:0[0x1](eng): Video: h264 (Main) (avc1 / 0x31637661), yuv420p(tv, bt709, progressive), 1920x1080 [SAR 1:1 DAR 16:9], 10494 kb/s, 29.97 fps, 29.97 tbr, 30k tbn (default)\n",
      "      Metadata:\n",
      "        creation_time   : 2020-04-03T07:51:23.000000Z\n",
      "        handler_name    : Video Media Handler\n",
      "        vendor_id       : [0][0][0][0]\n",
      "        encoder         : AVC Coding\n",
      "  Stream #0:1[0x2](eng): Audio: aac (LC) (mp4a / 0x6134706D), 48000 Hz, stereo, fltp, 128 kb/s (default)\n",
      "      Metadata:\n",
      "        creation_time   : 2020-04-03T07:51:23.000000Z\n",
      "        handler_name    : Sound Media Handler\n",
      "        vendor_id       : [0][0][0][0]\n",
      "Input #1, mov,mp4,m4a,3gp,3g2,mj2, from 'D:\\merge-test\\Journey\\Journey_20200403101634.mp4':\n",
      "  Metadata:\n",
      "    major_brand     : SNV2\n",
      "    minor_version   : 23995140\n",
      "    compatible_brands: SNV2isommp42\n",
      "    creation_time   : 2020-04-03T08:16:34.000000Z\n",
      "  Duration: 00:00:58.93, start: 0.000000, bitrate: 10968 kb/s\n",
      "  Stream #1:0[0x1](eng): Video: h264 (Main) (avc1 / 0x31637661), yuv420p(tv, bt709, progressive), 1920x1080 [SAR 1:1 DAR 16:9], 10837 kb/s, 29.97 fps, 29.97 tbr, 30k tbn (default)\n",
      "      Metadata:\n",
      "        creation_time   : 2020-04-03T08:16:34.000000Z\n",
      "        handler_name    : Video Media Handler\n",
      "        vendor_id       : [0][0][0][0]\n",
      "        encoder         : AVC Coding\n",
      "  Stream #1:1[0x2](eng): Audio: aac (LC) (mp4a / 0x6134706D), 48000 Hz, stereo, fltp, 128 kb/s (default)\n",
      "      Metadata:\n",
      "        creation_time   : 2020-04-03T08:16:34.000000Z\n",
      "        handler_name    : Sound Media Handler\n",
      "        vendor_id       : [0][0][0][0]\n",
      "Input #2, mov,mp4,m4a,3gp,3g2,mj2, from 'D:\\merge-test\\Journey\\Journey_20200403101857.mp4':\n",
      "  Metadata:\n",
      "    major_brand     : SNV2\n",
      "    minor_version   : 23995140\n",
      "    compatible_brands: SNV2isommp42\n",
      "    creation_time   : 2020-04-03T08:18:57.000000Z\n",
      "  Duration: 00:00:40.04, start: 0.000000, bitrate: 11203 kb/s\n",
      "  Stream #2:0[0x1](eng): Video: h264 (Main) (avc1 / 0x31637661), yuv420p(tv, bt709, progressive), 1920x1080 [SAR 1:1 DAR 16:9], 11072 kb/s, 29.97 fps, 29.97 tbr, 30k tbn (default)\n",
      "      Metadata:\n",
      "        creation_time   : 2020-04-03T08:18:57.000000Z\n",
      "        handler_name    : Video Media Handler\n",
      "        vendor_id       : [0][0][0][0]\n",
      "        encoder         : AVC Coding\n",
      "  Stream #2:1[0x2](eng): Audio: aac (LC) (mp4a / 0x6134706D), 48000 Hz, stereo, fltp, 128 kb/s (default)\n",
      "      Metadata:\n",
      "        creation_time   : 2020-04-03T08:18:57.000000Z\n",
      "        handler_name    : Sound Media Handler\n",
      "        vendor_id       : [0][0][0][0]\n",
      "Input #3, mov,mp4,m4a,3gp,3g2,mj2, from 'D:\\merge-test\\Journey\\Journey_20200403102253.mp4':\n",
      "  Metadata:\n",
      "    major_brand     : SNV2\n",
      "    minor_version   : 23995140\n",
      "    compatible_brands: SNV2isommp42\n",
      "    creation_time   : 2020-04-03T08:22:53.000000Z\n",
      "  Duration: 00:02:20.97, start: 0.000000, bitrate: 10941 kb/s\n",
      "  Stream #3:0[0x1](eng): Video: h264 (Main) (avc1 / 0x31637661), yuv420p(tv, bt709, progressive), 1920x1080 [SAR 1:1 DAR 16:9], 10810 kb/s, 29.97 fps, 29.97 tbr, 30k tbn (default)\n",
      "      Metadata:\n",
      "        creation_time   : 2020-04-03T08:22:53.000000Z\n",
      "        handler_name    : Video Media Handler\n",
      "        vendor_id       : [0][0][0][0]\n",
      "        encoder         : AVC Coding\n",
      "  Stream #3:1[0x2](eng): Audio: aac (LC) (mp4a / 0x6134706D), 48000 Hz, stereo, fltp, 128 kb/s (default)\n",
      "      Metadata:\n",
      "        creation_time   : 2020-04-03T08:22:53.000000Z\n",
      "        handler_name    : Sound Media Handler\n",
      "        vendor_id       : [0][0][0][0]\n",
      "[vost#0:1 @ 000002c4120e3400] Streamcopy requested for output stream fed from a complex filtergraph. Filtering and streamcopy cannot be used together.\n",
      "Error opening output file D:\\merge-test\\Journey\\merged_video.mp4.\n",
      "Error opening output files: Invalid argument\n",
      "\n"
     ]
    }
   ],
   "source": [
    "# Get the folder path \n",
    "folder_path = r\"D:\\merge-test\\Journey\"\n",
    "\n",
    "# Merge videos and create timestamps\n",
    "merge_videos_and_create_timestamps(folder_path)"
   ]
  }
 ],
 "metadata": {
  "kernelspec": {
   "display_name": "Python 3",
   "language": "python",
   "name": "python3"
  },
  "language_info": {
   "codemirror_mode": {
    "name": "ipython",
    "version": 3
   },
   "file_extension": ".py",
   "mimetype": "text/x-python",
   "name": "python",
   "nbconvert_exporter": "python",
   "pygments_lexer": "ipython3",
   "version": "3.12.6"
  }
 },
 "nbformat": 4,
 "nbformat_minor": 2
}
